<svg xmlns="http://www.w3.org/2000/svg" width="227" height="37" viewBox="0 0 227 37" fill="none">
<path d="M142.392 2.7661V34.2497" stroke="#717073" stroke-width="0.5"/>
<path d="M159.403 25.0083C159.402 24.2907 159.186 23.59 158.78 22.9978C158.375 22.4056 157.801 21.9496 157.132 21.6896C156.463 21.4295 155.732 21.3775 155.033 21.5404C154.334 21.7032 153.701 22.0734 153.216 22.6023C152.731 23.1312 152.417 23.7942 152.315 24.5045C152.214 25.2148 152.329 25.9392 152.646 26.5829C152.963 27.2265 153.467 27.7594 154.092 28.1117C154.718 28.464 155.434 28.6192 156.149 28.5572C156.135 28.3584 156.136 28.1589 156.153 27.9603C155.397 28.039 154.64 27.8247 154.038 27.3617C153.435 26.8987 153.033 26.2222 152.915 25.4717C152.796 24.7212 152.97 23.9538 153.401 23.3278C153.832 22.7018 154.486 22.2649 155.229 22.107C155.972 21.9491 156.748 22.0824 157.396 22.4793C158.044 22.8763 158.514 23.5066 158.711 24.2405C158.908 24.9743 158.816 25.7557 158.454 26.4236C158.092 27.0915 157.487 27.595 156.765 27.8304C156.733 28.0373 156.724 28.247 156.737 28.456C157.5 28.2574 158.176 27.8112 158.658 27.1872C159.141 26.5633 159.403 25.7969 159.403 25.0083Z" fill="#0081C8"/>
<path d="M174.837 25.0082C174.849 25.9332 174.5 26.8264 173.865 27.4988C173.229 28.1711 172.357 28.5699 171.433 28.6105C170.509 28.6512 169.605 28.3306 168.913 27.7166C168.222 27.1026 167.796 26.2435 167.726 25.321C167.938 25.3429 168.143 25.3877 168.339 25.451C168.453 26.2022 168.85 26.8812 169.449 27.3482C170.049 27.8151 170.804 28.0344 171.56 27.9609C172.316 27.8873 173.016 27.5265 173.514 26.9528C174.012 26.3791 174.271 25.6363 174.237 24.8773C174.204 24.1183 173.88 23.4011 173.334 22.8734C172.787 22.3457 172.059 22.0477 171.3 22.0409C170.54 22.0341 169.807 22.319 169.251 22.8368C168.695 23.3547 168.359 24.066 168.312 24.8242C168.119 24.7745 167.922 24.7407 167.723 24.723C167.789 23.8001 168.211 22.9391 168.901 22.3222C169.591 21.7054 170.494 21.3812 171.418 21.4183C172.343 21.4553 173.216 21.8508 173.855 22.5208C174.493 23.1909 174.845 24.083 174.837 25.0082Z" fill="#EE334E"/>
<path d="M170.379 28.4571C170.346 28.9954 170.166 29.5143 169.86 29.9583C169.554 30.4022 169.133 30.7543 168.641 30.9768C168.15 31.1993 167.608 31.2837 167.072 31.221C166.536 31.1583 166.028 30.9509 165.601 30.621C165.175 30.2911 164.846 29.8512 164.651 29.3485C164.455 28.8459 164.4 28.2995 164.492 27.7681C164.584 27.2366 164.819 26.7402 165.171 26.3322C165.524 25.9242 165.981 25.6199 166.494 25.4521C166.525 25.2448 166.534 25.0347 166.521 24.8254C165.888 24.9898 165.312 25.3254 164.857 25.7952C164.402 26.2651 164.086 26.8512 163.942 27.4892C163.797 28.1272 163.832 28.7925 164.041 29.4123C164.25 30.0321 164.626 30.5824 165.127 31.0028C165.628 31.4232 166.235 31.6976 166.881 31.7959C167.528 31.8942 168.189 31.8126 168.793 31.56C169.396 31.3074 169.918 30.8936 170.302 30.3639C170.686 29.8342 170.916 29.2091 170.968 28.5571C170.769 28.5406 170.572 28.5071 170.379 28.4571ZM167.416 25.3049C168.905 25.3049 170.138 26.4009 170.352 27.8303C170.548 27.8947 170.753 27.9384 170.964 27.9603C170.881 27.0201 170.428 26.1513 169.705 25.5447C168.982 24.9381 168.048 24.6434 167.108 24.7253C167.124 24.9236 167.123 25.1229 167.105 25.321C167.208 25.3107 167.311 25.3049 167.416 25.3049Z" fill="#00A651"/>
<path d="M163.251 28.5572C163.17 29.469 162.742 30.315 162.055 30.9197C161.368 31.5244 160.475 31.8415 159.56 31.8051C158.645 31.7687 157.78 31.3817 157.143 30.7243C156.506 30.0669 156.146 29.1896 156.139 28.2743C156.139 26.6171 157.272 25.2233 158.805 24.8266C158.818 25.0359 158.808 25.2459 158.777 25.4533C158.106 25.6736 157.536 26.1257 157.169 26.7283C156.801 27.331 156.66 28.0448 156.772 28.7419C156.883 29.439 157.239 30.0736 157.775 30.5321C158.312 30.9905 158.995 31.2428 159.7 31.2436C160.456 31.2438 161.183 30.9557 161.734 30.4382C162.284 29.9206 162.617 29.2124 162.663 28.4583C162.853 28.5066 163.049 28.5399 163.251 28.5572ZM159.389 25.3211C159.407 25.1226 159.408 24.9229 159.392 24.7242C160.333 24.6426 161.267 24.9375 161.99 25.5443C162.713 26.1511 163.166 27.0201 163.248 27.9603C163.04 27.939 162.834 27.8954 162.635 27.8304C162.521 27.0747 162.12 26.3921 161.515 25.9248C160.911 25.4574 160.149 25.2411 159.389 25.3211Z" fill="#FCB131"/>
<path d="M163.558 27.9764C162.847 27.9761 162.16 27.7212 161.622 27.2578C161.083 26.7945 160.729 26.1534 160.623 25.451C160.424 25.3858 160.218 25.3422 160.01 25.3211C160.093 26.261 160.546 27.1295 161.269 27.736C161.992 28.3424 162.926 28.6374 163.866 28.556C163.851 28.3577 163.852 28.1585 163.868 27.9603C163.766 27.9718 163.662 27.9764 163.558 27.9764ZM163.558 21.4467C162.662 21.4468 161.799 21.7842 161.141 22.3918C160.484 22.9994 160.079 23.8326 160.008 24.7254C160.209 24.7426 160.405 24.7771 160.595 24.8266C160.629 24.2887 160.808 23.7701 161.115 23.3266C161.421 22.8831 161.842 22.5314 162.333 22.3092C162.824 22.087 163.366 22.0027 163.902 22.0654C164.437 22.1282 164.945 22.3355 165.371 22.6652C165.798 22.9949 166.126 23.4345 166.322 23.9367C166.517 24.439 166.572 24.985 166.48 25.5162C166.389 26.0473 166.154 26.5434 165.802 26.9513C165.45 27.3593 164.993 27.6635 164.481 27.8315C164.45 28.0389 164.441 28.2489 164.453 28.4583C165.289 28.2373 166.016 27.72 166.499 27.0029C166.982 26.2857 167.188 25.4175 167.078 24.5598C166.969 23.7022 166.551 22.9136 165.904 22.3409C165.256 21.7682 164.422 21.4504 163.558 21.4467Z" fill="black"/>
<path d="M176.143 2.7661H150.543V19.6653H176.574V2.7661H176.143Z" fill="white"/>
<path d="M161.426 3.19735H176.142V4.43015H161.426V3.19735ZM161.426 5.6641H176.142V6.8969H161.426V5.6641ZM161.426 8.11935H176.142V9.35215H161.426V8.11935ZM161.426 10.5895H176.142V11.8212H161.426V10.5895ZM150.974 13.0597H176.142V14.2925H150.974V13.0597ZM150.974 15.5138H176.142V16.7466H150.974V15.5138ZM150.974 18.0024H176.142V19.2341H150.974V18.0024Z" fill="#C42032"/>
<path d="M150.974 3.19735H161.427V11.8212H150.974V3.19735Z" fill="#152C53"/>
<path d="M152.588 4.7694H153.014L152.673 5.03045L152.804 5.44905L152.465 5.19145L152.124 5.44905L152.258 5.03045L151.914 4.7694H152.334L152.465 4.36345L152.588 4.7694ZM152.59 7.37185H153.014L152.672 7.63405L152.805 8.05265L152.464 7.79505L152.124 8.05265L152.26 7.63405L151.914 7.37185H152.337L152.464 6.96245L152.59 7.37185ZM152.588 9.97085H153.014L152.673 10.2319L152.804 10.6505L152.465 10.394L152.124 10.6505L152.258 10.2319L151.914 9.97085H152.334L152.465 9.5649L152.588 9.97085ZM156.347 4.7694H156.774L156.431 5.03045L156.563 5.44905L156.224 5.19145L155.884 5.44905L156.017 5.03045L155.673 4.7694H156.093L156.224 4.36345L156.347 4.7694ZM156.349 7.37185H156.774L156.431 7.63405L156.564 8.05265L156.223 7.79505L155.884 8.05265L156.018 7.63405L155.673 7.37185H156.096L156.223 6.96245L156.349 7.37185ZM156.347 9.97085H156.774L156.431 10.2319L156.563 10.6505L156.224 10.394L155.884 10.6505L156.017 10.2319L155.673 9.97085H156.093L156.224 9.5649L156.347 9.97085ZM160.11 4.7694H160.533L160.193 5.03045L160.328 5.44905L159.985 5.19145L159.645 5.44905L159.78 5.03045L159.433 4.7694H159.857L159.985 4.36345L160.11 4.7694ZM160.108 7.37185H160.533L160.19 7.63405L160.327 8.0515L159.982 7.79505L159.644 8.0515L159.78 7.63405L159.433 7.37185H159.857L159.982 6.96245L160.108 7.37185ZM160.11 9.97085H160.533L160.193 10.233L160.328 10.6516L159.985 10.394L159.645 10.6516L159.78 10.233L159.433 9.97085H159.857L159.985 9.5626L160.11 9.97085ZM154.47 6.0712H154.893L154.552 6.33455L154.684 6.752L154.344 6.49555L154.003 6.752L154.139 6.33455L153.793 6.0712H154.216L154.344 5.66295L154.47 6.0712ZM154.467 8.67135H154.893L154.552 8.9324L154.683 9.35215L154.345 9.09455L154.003 9.35215L154.138 8.9324L153.793 8.67135H154.213L154.345 8.2654L154.467 8.67135ZM158.23 6.0712H158.654L158.311 6.33455L158.444 6.752L158.103 6.49555L157.763 6.752L157.898 6.33455L157.552 6.0712H157.975L158.103 5.66295L158.23 6.0712ZM158.226 8.67135H158.654L158.311 8.9324L158.442 9.35215L158.104 9.09455L157.764 9.35215L157.897 8.9324L157.553 8.67135H157.973L158.104 8.2654L158.226 8.67135ZM210.249 2.7661H184.649V19.6653H210.68V2.7661H210.249Z" fill="white"/>
<path d="M195.531 3.19735H210.248V4.43015H195.531V3.19735ZM195.531 5.6641H210.248V6.8969H195.531V5.6641ZM195.531 8.11935H210.248V9.35215H195.531V8.11935ZM195.531 10.5895H210.248V11.8212H195.531V10.5895ZM185.08 13.0597H210.248V14.2925H185.08V13.0597ZM185.08 15.5138H210.248V16.7466H185.08V15.5138ZM185.08 18.0024H210.248V19.2341H185.08V18.0024Z" fill="#C42032"/>
<path d="M185.08 3.19735H195.532V11.8212H185.08V3.19735Z" fill="#152C53"/>
<path d="M186.693 4.7694H187.12L186.778 5.03045L186.91 5.44905L186.57 5.19145L186.23 5.44905L186.363 5.03045L186.019 4.7694H186.439L186.57 4.36345L186.693 4.7694ZM186.696 7.37185H187.121L186.778 7.63405L186.911 8.05265L186.569 7.79505L186.23 8.05265L186.366 7.63405L186.019 7.37185H186.443L186.569 6.96245L186.696 7.37185ZM186.693 9.97085H187.12L186.778 10.2319L186.91 10.6505L186.57 10.394L186.23 10.6505L186.363 10.2319L186.019 9.97085H186.439L186.57 9.5649L186.693 9.97085ZM190.453 4.7694H190.879L190.538 5.03045L190.669 5.44905L190.33 5.19145L189.989 5.44905L190.124 5.03045L189.779 4.7694H190.199L190.33 4.36345L190.453 4.7694ZM190.455 7.37185H190.879L190.537 7.63405L190.67 8.05265L190.328 7.79505L189.989 8.05265L190.124 7.63405L189.779 7.37185H190.202L190.328 6.96245L190.455 7.37185ZM190.453 9.97085H190.879L190.538 10.2319L190.669 10.6505L190.33 10.394L189.989 10.6505L190.124 10.2319L189.779 9.97085H190.199L190.33 9.5649L190.453 9.97085ZM194.217 4.7694H194.639L194.298 5.03045L194.434 5.44905L194.09 5.19145L193.751 5.44905L193.885 5.03045L193.538 4.7694H193.962L194.09 4.36345L194.217 4.7694ZM194.213 7.37185H194.639L194.297 7.63405L194.433 8.0515L194.089 7.79505L193.75 8.0515L193.885 7.63405L193.538 7.37185H193.964L194.089 6.96245L194.213 7.37185ZM194.217 9.97085H194.639L194.298 10.233L194.434 10.6516L194.09 10.394L193.751 10.6516L193.885 10.233L193.538 9.97085H193.962L194.09 9.5626L194.217 9.97085ZM188.576 6.0712H189L188.658 6.33455L188.79 6.752L188.449 6.49555L188.109 6.752L188.245 6.33455L187.899 6.0712H188.322L188.449 5.6641L188.576 6.0712ZM188.572 8.67135H188.999L188.658 8.9324L188.789 9.35215L188.451 9.09455L188.109 9.35215L188.244 8.9324L187.899 8.67135H188.318L188.451 8.2654L188.572 8.67135ZM192.335 6.0712H192.76L192.417 6.33455L192.549 6.752L192.209 6.49555L191.868 6.752L192.004 6.33455L191.659 6.0712H192.081L192.209 5.6641L192.335 6.0712ZM192.332 8.67135H192.76L192.417 8.9324L192.548 9.35215L192.21 9.09455L191.869 9.35215L192.003 8.9324L191.659 8.67135H192.079L192.21 8.2654L192.332 8.67135Z" fill="white"/>
<path d="M196.801 21.5513C195.552 21.2638 193.847 21.5801 192.236 22.5104C189.717 23.9652 188.381 26.3698 189.254 27.8821C189.812 28.8481 191.137 29.2161 192.678 28.9757C191.973 28.8136 191.414 28.4594 191.099 27.9131C190.226 26.4009 191.561 23.9962 194.081 22.5415C194.991 22.0171 195.93 21.687 196.801 21.5513Z" fill="#EE334E"/>
<path d="M196.823 27.5164C197.197 28.7412 198.324 30.0591 199.936 30.9894C202.455 32.4442 205.206 32.3982 206.079 30.8859C206.637 29.9199 206.293 28.5894 205.314 27.375C205.526 28.0661 205.498 28.7285 205.183 29.2736C204.31 30.7859 201.559 30.8319 199.04 29.3771C198.13 28.8516 197.375 28.203 196.823 27.5164Z" fill="#00A651"/>
<path d="M195.114 24.5494C194.241 25.4867 193.662 27.122 193.662 28.9815C193.662 31.891 195.078 34.2497 196.824 34.2497C197.939 34.2497 198.92 33.286 199.482 31.8324C198.989 32.3614 198.403 32.6684 197.772 32.6684C196.027 32.6684 194.611 30.3098 194.611 27.4003C194.611 26.3492 194.796 25.3705 195.114 24.5494Z" fill="#0081C8"/>
<path d="M125.079 19.4975L126.924 14.6583L128.767 19.4975H125.079ZM128.84 11.9109H125.007L119.651 25.0313H122.971L124.191 21.8297H129.656L130.876 25.0313H134.195L128.84 11.9109ZM101.806 22.7497C99.6429 22.7497 97.8926 20.7993 97.8926 18.3912C97.8926 15.9831 99.6429 14.0315 101.806 14.0315C103.966 14.0315 105.718 15.9831 105.718 18.3912C105.718 20.7993 103.965 22.7497 101.806 22.7497ZM101.806 11.4601C99.99 11.4932 98.2595 12.2378 96.9869 13.5339C95.7143 14.8299 95.0012 16.5736 95.0012 18.39C95.0012 20.2064 95.7143 21.9501 96.9869 23.2462C98.2595 24.5422 99.99 25.2868 101.806 25.3199C102.727 25.3367 103.641 25.1698 104.497 24.8291C105.352 24.4884 106.131 23.9806 106.788 23.3354C107.445 22.6903 107.967 21.9207 108.324 21.0715C108.68 20.2224 108.863 19.3108 108.863 18.39C108.863 17.4692 108.68 16.5576 108.324 15.7085C107.967 14.8594 107.445 14.0897 106.788 13.4446C106.131 12.7994 105.352 12.2916 104.497 11.9509C103.641 11.6102 102.727 11.4433 101.806 11.4601ZM74.4521 22.7497C72.2924 22.7497 70.541 20.7993 70.541 18.3912C70.541 15.9831 72.2924 14.0315 74.4521 14.0315C76.6141 14.0315 78.3656 15.9831 78.3656 18.3912C78.3667 20.7993 76.6141 22.7497 74.4521 22.7497ZM74.4521 11.4601C73.542 11.4601 72.6409 11.6394 71.8001 11.9877C70.9593 12.3361 70.1954 12.8467 69.552 13.4903C68.9085 14.1339 68.3982 14.898 68.0501 15.7389C67.7021 16.5798 67.5231 17.4811 67.5234 18.3912C67.5236 19.7618 67.9303 21.1015 68.6919 22.241C69.4536 23.3805 70.536 24.2685 71.8024 24.7928C73.0688 25.3171 74.4622 25.4541 75.8064 25.1865C77.1506 24.9189 78.3853 24.2587 79.3543 23.2894C80.3233 22.32 80.9831 21.0851 81.2503 19.7408C81.5174 18.3965 81.38 17.0032 80.8552 15.737C80.3305 14.4708 79.4421 13.3886 78.3024 12.6274C77.1626 11.8661 75.8227 11.4599 74.4521 11.4601ZM91.586 11.9109L88.19 17.2193L84.7906 11.9109H81.4694L86.7272 20.1392V25.0313H89.6517V20.1392L94.9095 11.9098L91.586 11.9109ZM120.35 11.9109H109.13V14.4271H113.286V25.0324H116.213V14.4271H120.351L120.35 11.9109ZM55.691 14.426H59.8483V25.0313H62.7739V14.426H66.9127V11.9109H55.6922L55.691 14.426Z" fill="black"/>
<path d="M16.33 2.76035H47.8181V34.2485H16.33V2.76035Z" fill="#EB0A1E"/>
<path d="M37.3255 11.6372C35.8639 11.1669 34.0457 10.8897 32.0746 10.8897C30.1035 10.8897 28.2842 11.1669 26.8237 11.6372C22.9367 12.8873 20.2664 15.4817 20.2664 18.4809C20.2664 22.6991 25.553 26.1203 32.0758 26.1203C38.5963 26.1203 43.8828 22.6991 43.8828 18.4809C43.8828 15.4817 41.2114 12.8873 37.3255 11.6372ZM32.0746 22.8348C31.1017 22.8348 30.3059 20.9212 30.2599 18.5165C31.4673 18.6254 32.682 18.6254 33.8893 18.5165C33.8422 20.9223 33.0475 22.8348 32.0746 22.8348ZM30.383 16.6351C30.6486 14.9469 31.3053 13.7521 32.0746 13.7521C32.8428 13.7521 33.5006 14.9481 33.7651 16.6351C32.6401 16.7378 31.508 16.7378 30.383 16.6351ZM34.8001 16.5075C34.4057 13.8579 33.3339 11.9592 32.0746 11.9592C30.8154 11.9592 29.7436 13.8579 29.3491 16.5075C26.9502 16.1326 25.2735 15.2804 25.2735 14.288C25.2735 12.9505 28.3187 11.8661 32.0746 11.8661C35.8305 11.8661 38.8757 12.9505 38.8757 14.288C38.8757 15.2804 37.199 16.1326 34.8001 16.5075ZM21.9891 18.2003C21.9891 16.9065 22.4871 15.6956 23.3553 14.6525C23.3452 14.7249 23.3402 14.7979 23.3404 14.871C23.3404 16.4983 25.7841 17.8806 29.1916 18.3889C29.1893 18.5119 29.187 18.635 29.187 18.7592C29.187 21.7837 30.0265 24.3459 31.1857 25.2291C26.0314 24.9151 21.9891 21.8895 21.9891 18.2003ZM32.9636 25.2302C34.1228 24.347 34.9623 21.7848 34.9623 18.7603C34.9623 18.6361 34.9611 18.5131 34.9577 18.39C38.364 17.8817 40.8077 16.4983 40.8077 14.8722C40.8077 14.7986 40.802 14.7261 40.7916 14.6537C41.6599 15.6967 42.1578 16.9088 42.1578 18.2014C42.159 21.8895 38.1167 24.9151 32.9636 25.2302Z" fill="white"/>
</svg>