<svg aria-hidden="true" class="tcom-icon tcom-social-icon tcom-icon-social-pinterest" width="40"
  height="40" viewBox="0 0 40 40" fill="none" xmlns="http://www.w3.org/2000/svg">
  <rect x="0.499878" y="0.5" width="39.0001" height="39" rx="19.5" fill="#F6F6F6"></rect>
  <path
    d="M19.9998 12C15.5816 12 11.9999 15.5817 11.9999 20C11.9999 23.3892 14.1085 26.2865 17.0845 27.4522C17.0145 26.8192 16.9513 25.8458 17.1122 25.1548C17.2576 24.5304 18.0503 21.1782 18.0503 21.1782C18.0503 21.1782 17.811 20.699 17.811 19.9905C17.811 18.8781 18.4558 18.0476 19.2586 18.0476C19.9411 18.0476 20.2707 18.56 20.2707 19.1745C20.2707 19.8609 19.8337 20.8871 19.6082 21.8382C19.4197 22.6344 20.0075 23.2838 20.7929 23.2838C22.2147 23.2838 23.3077 21.7845 23.3077 19.6204C23.3077 17.7049 21.9314 16.3657 19.9661 16.3657C17.6898 16.3657 16.3537 18.073 16.3537 19.8374C16.3537 20.525 16.6186 21.2623 16.9491 21.6631C17.0145 21.7423 17.0241 21.8117 17.0046 21.8926C16.9439 22.1453 16.8089 22.6886 16.7824 22.7999C16.7475 22.9463 16.6665 22.9774 16.5148 22.9068C15.5157 22.4417 14.891 20.9809 14.891 19.8076C14.891 17.284 16.7246 14.9664 20.1769 14.9664C22.9521 14.9664 25.1087 16.944 25.1087 19.5869C25.1087 22.344 23.3703 24.5629 20.9575 24.5629C20.1468 24.5629 19.3847 24.1417 19.1239 23.6442C19.1239 23.6442 18.7227 25.1717 18.6255 25.546C18.4449 26.2409 17.9573 27.1119 17.6312 27.6433C18.3797 27.875 19.1751 28 19.9998 28C24.4181 28 27.9999 24.4183 27.9999 20C27.9999 15.5817 24.4181 12 19.9998 12Z"
    fill="black"></path>
  <rect x="0.499878" y="0.5" width="39.0001" height="39" rx="19.5" stroke="black"></rect>
</svg>